<svg width="1920" height="1171" viewBox="0 0 1920 1171" fill="none" xmlns="http://www.w3.org/2000/svg">
<g filter="url(#filter0_f_202_198)">
<ellipse cx="874.616" cy="512.365" rx="310.815" ry="171.538" transform="rotate(16.4114 874.616 512.365)" fill="#8349FF" fill-opacity="0.4"/>
</g>
<g filter="url(#filter1_f_202_198)">
<path d="M1223.44 500.378C1262.34 496.416 1281.58 481.38 1317.21 465.283C1386 434.21 1411.3 390.975 1481.75 363.884C1625.49 308.608 1341.72 676.422 1193.82 633.35C1100.85 606.273 934.874 434.712 1031.01 446.306C1069.4 450.937 1085.37 473.452 1122.56 484.049C1160.94 494.985 1183.74 504.421 1223.44 500.378Z" fill="url(#paint0_linear_202_198)" fill-opacity="0.9"/>
</g>
<g filter="url(#filter2_f_202_198)">
<path d="M593.632 431.675C519.243 436.569 470.692 464.028 423.468 527.915C327.8 657.338 886.747 698.452 808.904 556.266C759.823 466.615 688.651 425.423 593.632 431.675Z" fill="#0013FF" fill-opacity="0.3"/>
</g>
<g filter="url(#filter3_f_202_198)">
<path d="M460.417 384.05C410.205 363.164 369.577 365.394 318.022 391.865C213.581 445.492 565.644 653.343 560.796 535.194C557.74 460.699 524.553 410.729 460.417 384.05Z" fill="#00FFFF" fill-opacity="0.6"/>
</g>
<defs>
<filter id="filter0_f_202_198" x="122.506" y="-124.188" width="1504.22" height="1273.1" filterUnits="userSpaceOnUse" color-interpolation-filters="sRGB">
<feFlood flood-opacity="0" result="BackgroundImageFix"/>
<feBlend mode="normal" in="SourceGraphic" in2="BackgroundImageFix" result="shape"/>
<feGaussianBlur stdDeviation="225" result="effect1_foregroundBlur_202_198"/>
</filter>
<filter id="filter1_f_202_198" x="552.014" y="-91.7905" width="1419.24" height="1178.66" filterUnits="userSpaceOnUse" color-interpolation-filters="sRGB">
<feFlood flood-opacity="0" result="BackgroundImageFix"/>
<feBlend mode="normal" in="SourceGraphic" in2="BackgroundImageFix" result="shape"/>
<feGaussianBlur stdDeviation="225" result="effect1_foregroundBlur_202_198"/>
</filter>
<filter id="filter2_f_202_198" x="112.414" y="131.057" width="1003.95" height="814.528" filterUnits="userSpaceOnUse" color-interpolation-filters="sRGB">
<feFlood flood-opacity="0" result="BackgroundImageFix"/>
<feBlend mode="normal" in="SourceGraphic" in2="BackgroundImageFix" result="shape"/>
<feGaussianBlur stdDeviation="150" result="effect1_foregroundBlur_202_198"/>
</filter>
<filter id="filter3_f_202_198" x="-301.354" y="-230.001" width="1462.2" height="1400.97" filterUnits="userSpaceOnUse" color-interpolation-filters="sRGB">
<feFlood flood-opacity="0" result="BackgroundImageFix"/>
<feBlend mode="normal" in="SourceGraphic" in2="BackgroundImageFix" result="shape"/>
<feGaussianBlur stdDeviation="300" result="effect1_foregroundBlur_202_198"/>
</filter>
<linearGradient id="paint0_linear_202_198" x1="1367.18" y1="434.254" x2="1133.26" y2="528.808" gradientUnits="userSpaceOnUse">
<stop offset="0.541667" stop-color="#FF005C"/>
<stop offset="0.65625" stop-color="#FFCDFF"/>
</linearGradient>
</defs>
</svg>
